<svg xmlns="http://www.w3.org/2000/svg" viewBox="0 0 800 400" style="background-color:#FAFAFA;">

        <defs>
            <marker id="arrowhead" markerWidth="10" markerHeight="7" refX="9" refY="3.5" orient="auto">
                <polygon points="0 0, 10 3.5, 0 7" fill="#A3A3A3"/>
            </marker>
        </defs>
        
<rect x="50" y="50" width="140" height="50" rx="6" fill="#E5E5E5" stroke="#A3A3A3" stroke-width="1"/>
<text x="120.0" y="71.0" font-family="sans-serif" font-size="12" fill="#171717" text-anchor="middle" dominant-baseline="middle">Mount Canvas</text>
<rect x="250" y="50" width="140" height="50" rx="6" fill="#E5E5E5" stroke="#A3A3A3" stroke-width="1"/>
<text x="320.0" y="71.0" font-family="sans-serif" font-size="12" fill="#171717" text-anchor="middle" dominant-baseline="middle">prefers-reduced-motion?</text>
<rect x="500" y="20" width="140" height="50" rx="6" fill="#D4AF37" stroke="#A3A3A3" stroke-width="1"/>
<text x="570.0" y="33.0" font-family="sans-serif" font-size="12" fill="#FFFFFF" text-anchor="middle" dominant-baseline="middle">Yes</text>
<text x="570.0" y="49.0" font-family="sans-serif" font-size="12" fill="#FFFFFF" text-anchor="middle" dominant-baseline="middle">Static Render</text>
<rect x="500" y="100" width="140" height="50" rx="6" fill="#E5E5E5" stroke="#A3A3A3" stroke-width="1"/>
<text x="570.0" y="113.0" font-family="sans-serif" font-size="12" fill="#171717" text-anchor="middle" dominant-baseline="middle">No</text>
<text x="570.0" y="129.0" font-family="sans-serif" font-size="12" fill="#171717" text-anchor="middle" dominant-baseline="middle">Check Touch/Width</text>
<rect x="500" y="200" width="140" height="50" rx="6" fill="#E5E5E5" stroke="#A3A3A3" stroke-width="1"/>
<text x="570.0" y="213.0" font-family="sans-serif" font-size="12" fill="#171717" text-anchor="middle" dominant-baseline="middle">Mobile</text>
<text x="570.0" y="229.0" font-family="sans-serif" font-size="12" fill="#171717" text-anchor="middle" dominant-baseline="middle">Auto-rotate only</text>
<rect x="500" y="300" width="140" height="50" rx="6" fill="#0055FF" stroke="#A3A3A3" stroke-width="1"/>
<text x="570.0" y="305.0" font-family="sans-serif" font-size="12" fill="#FFFFFF" text-anchor="middle" dominant-baseline="middle">Desktop</text>
<text x="570.0" y="321.0" font-family="sans-serif" font-size="12" fill="#FFFFFF" text-anchor="middle" dominant-baseline="middle">Auto-rotate</text>
<text x="570.0" y="337.0" font-family="sans-serif" font-size="12" fill="#FFFFFF" text-anchor="middle" dominant-baseline="middle">+ Cursor Parallax</text>
<line x1="190" y1="75" x2="250" y2="75" stroke="#A3A3A3" stroke-width="2" marker-end="url(#arrowhead)"/>
<line x1="390" y1="60" x2="500" y2="45" stroke="#A3A3A3" stroke-width="2" marker-end="url(#arrowhead)"/>
<rect x="430.0" y="42.5" width="30" height="20" fill="#FAFAFA"/>
<text x="445.0" y="52.5" font-family="sans-serif" font-size="10" fill="#737373" text-anchor="middle" dominant-baseline="middle">Yes</text>
<line x1="390" y1="90" x2="500" y2="125" stroke="#A3A3A3" stroke-width="2" marker-end="url(#arrowhead)"/>
<rect x="430.0" y="97.5" width="30" height="20" fill="#FAFAFA"/>
<text x="445.0" y="107.5" font-family="sans-serif" font-size="10" fill="#737373" text-anchor="middle" dominant-baseline="middle">No</text>
<line x1="570" y1="150" x2="570" y2="200" stroke="#A3A3A3" stroke-width="2" marker-end="url(#arrowhead)"/>
<rect x="555.0" y="165.0" width="30" height="20" fill="#FAFAFA"/>
<text x="570.0" y="175.0" font-family="sans-serif" font-size="10" fill="#737373" text-anchor="middle" dominant-baseline="middle">Yes</text>
<line x1="640" y1="125" x2="700" y2="125" stroke="#A3A3A3" stroke-width="2" marker-end="url(#arrowhead)"/>
<line x1="700" y1="125" x2="700" y2="325" stroke="#A3A3A3" stroke-width="2" marker-end="url(#arrowhead)"/>
<line x1="700" y1="325" x2="640" y2="325" stroke="#A3A3A3" stroke-width="2" marker-end="url(#arrowhead)"/>
<rect x="655.0" y="315.0" width="30" height="20" fill="#FAFAFA"/>
<text x="670.0" y="325.0" font-family="sans-serif" font-size="10" fill="#737373" text-anchor="middle" dominant-baseline="middle">No</text>
</svg>