<svg xmlns="http://www.w3.org/2000/svg" viewBox="0 0 800 400" style="background-color:#FAFAFA;">

        <defs>
            <marker id="arrowhead" markerWidth="10" markerHeight="7" refX="9" refY="3.5" orient="auto">
                <polygon points="0 0, 10 3.5, 0 7" fill="#A3A3A3"/>
            </marker>
        </defs>
        
<rect x="50" y="150" width="140" height="50" rx="6" fill="#E5E5E5" stroke="#A3A3A3" stroke-width="1"/>
<text x="120.0" y="171.0" font-family="sans-serif" font-size="12" fill="#171717" text-anchor="middle" dominant-baseline="middle">Scroll Position (0->1)</text>
<rect x="250" y="150" width="140" height="50" rx="6" fill="#E5E5E5" stroke="#A3A3A3" stroke-width="1"/>
<text x="320.0" y="171.0" font-family="sans-serif" font-size="12" fill="#171717" text-anchor="middle" dominant-baseline="middle">GSAP scrub: true</text>
<rect x="450" y="50" width="140" height="50" rx="6" fill="#E5E5E5" stroke="#A3A3A3" stroke-width="1"/>
<text x="520.0" y="63.0" font-family="sans-serif" font-size="12" fill="#171717" text-anchor="middle" dominant-baseline="middle">3D Renderer</text>
<text x="520.0" y="79.0" font-family="sans-serif" font-size="12" fill="#171717" text-anchor="middle" dominant-baseline="middle">Mesh Separation</text>
<rect x="450" y="250" width="140" height="50" rx="6" fill="#0055FF" stroke="#A3A3A3" stroke-width="1"/>
<text x="520.0" y="263.0" font-family="sans-serif" font-size="12" fill="#FFFFFF" text-anchor="middle" dominant-baseline="middle">2D Renderer</text>
<text x="520.0" y="279.0" font-family="sans-serif" font-size="12" fill="#FFFFFF" text-anchor="middle" dominant-baseline="middle">Layer Crossfade</text>
<rect x="650" y="150" width="120" height="50" rx="6" fill="#D4AF37" stroke="#A3A3A3" stroke-width="1"/>
<text x="710.0" y="171.0" font-family="sans-serif" font-size="12" fill="#FFFFFF" text-anchor="middle" dominant-baseline="middle">Fade in Labels</text>
<line x1="190" y1="175" x2="250" y2="175" stroke="#A3A3A3" stroke-width="2" marker-end="url(#arrowhead)"/>
<line x1="390" y1="160" x2="450" y2="75" stroke="#A3A3A3" stroke-width="2" marker-end="url(#arrowhead)"/>
<rect x="405.0" y="107.5" width="30" height="20" fill="#FAFAFA"/>
<text x="420.0" y="117.5" font-family="sans-serif" font-size="10" fill="#737373" text-anchor="middle" dominant-baseline="middle">If 3D Asset</text>
<line x1="390" y1="190" x2="450" y2="275" stroke="#A3A3A3" stroke-width="2" marker-end="url(#arrowhead)"/>
<rect x="405.0" y="222.5" width="30" height="20" fill="#FAFAFA"/>
<text x="420.0" y="232.5" font-family="sans-serif" font-size="10" fill="#737373" text-anchor="middle" dominant-baseline="middle">Current Asset</text>
<line x1="590" y1="75" x2="650" y2="160" stroke="#A3A3A3" stroke-width="2" marker-end="url(#arrowhead)"/>
<line x1="590" y1="275" x2="650" y2="190" stroke="#A3A3A3" stroke-width="2" marker-end="url(#arrowhead)"/>
</svg>