<svg xmlns="http://www.w3.org/2000/svg" viewBox="0 0 800 300" style="background-color:#FAFAFA;">

        <defs>
            <marker id="arrowhead" markerWidth="10" markerHeight="7" refX="9" refY="3.5" orient="auto">
                <polygon points="0 0, 10 3.5, 0 7" fill="#A3A3A3"/>
            </marker>
        </defs>
        
<rect x="50" y="50" width="140" height="50" rx="6" fill="#E5E5E5" stroke="#A3A3A3" stroke-width="1"/>
<text x="120.0" y="71.0" font-family="sans-serif" font-size="12" fill="#171717" text-anchor="middle" dominant-baseline="middle">User Cursor Move</text>
<rect x="50" y="200" width="140" height="50" rx="6" fill="#E5E5E5" stroke="#A3A3A3" stroke-width="1"/>
<text x="120.0" y="221.0" font-family="sans-serif" font-size="12" fill="#171717" text-anchor="middle" dominant-baseline="middle">Timer Interval</text>
<rect x="250" y="125" width="140" height="50" rx="6" fill="#E5E5E5" stroke="#A3A3A3" stroke-width="1"/>
<text x="320.0" y="146.0" font-family="sans-serif" font-size="12" fill="#171717" text-anchor="middle" dominant-baseline="middle">State Machine</text>
<rect x="500" y="50" width="140" height="40" rx="6" fill="#0055FF" stroke="#A3A3A3" stroke-width="1"/>
<text x="570.0" y="66.0" font-family="sans-serif" font-size="12" fill="#FFFFFF" text-anchor="middle" dominant-baseline="middle">Live Location</text>
<rect x="500" y="130" width="140" height="40" rx="6" fill="#0055FF" stroke="#A3A3A3" stroke-width="1"/>
<text x="570.0" y="146.0" font-family="sans-serif" font-size="12" fill="#FFFFFF" text-anchor="middle" dominant-baseline="middle">Safe Zone Reveal</text>
<rect x="500" y="210" width="140" height="40" rx="6" fill="#D4AF37" stroke="#A3A3A3" stroke-width="1"/>
<text x="570.0" y="226.0" font-family="sans-serif" font-size="12" fill="#FFFFFF" text-anchor="middle" dominant-baseline="middle">SOS Triggered</text>
<line x1="190" y1="75" x2="250" y2="140" stroke="#A3A3A3" stroke-width="2" marker-end="url(#arrowhead)"/>
<line x1="190" y1="225" x2="250" y2="160" stroke="#A3A3A3" stroke-width="2" marker-end="url(#arrowhead)"/>
<line x1="390" y1="130" x2="500" y2="70" stroke="#A3A3A3" stroke-width="2" marker-end="url(#arrowhead)"/>
<line x1="390" y1="150" x2="500" y2="150" stroke="#A3A3A3" stroke-width="2" marker-end="url(#arrowhead)"/>
<line x1="390" y1="170" x2="500" y2="230" stroke="#A3A3A3" stroke-width="2" marker-end="url(#arrowhead)"/>
</svg>